<?xml version="1.0" standalone="no"?>
<!DOCTYPE svg PUBLIC "-//W3C//DTD SVG 20010904//EN"
 "http://www.w3.org/TR/2001/REC-SVG-20010904/DTD/svg10.dtd">
<svg version="1.0" xmlns="http://www.w3.org/2000/svg"
 width="270.000000pt" height="270.000000pt" viewBox="0 0 270.000000 270.000000"
 preserveAspectRatio="xMidYMid meet">
<metadata>
Created by potrace 1.11, written by Peter Selinger 2001-2013
</metadata>
<g transform="translate(0.000000,270.000000) scale(0.100000,-0.100000)"
fill="#000000" stroke="none">
<path d="M0 1350 l0 -1350 1350 0 1350 0 0 1350 0 1350 -1350 0 -1350 0 0
-1350z m788 1003 c2 -24 12 -37 37 -53 60 -37 112 -46 250 -43 139 4 187 -5
252 -50 42 -28 42 -44 0 -39 -49 6 -151 -33 -247 -92 -126 -79 -167 -98 -232
-103 l-58 -6 -2 -641 -3 -641 -37 -3 -38 -3 0 856 0 856 38 -3 c34 -3 37 -6
40 -35z m1131 -798 c214 -38 381 -135 449 -264 87 -161 58 -371 -70 -516 -170
-193 -556 -353 -1028 -426 -120 -18 -189 -22 -405 -23 -246 -1 -264 0 -335 22
-94 30 -147 60 -193 111 -53 59 -69 103 -69 198 -1 75 2 88 28 130 18 29 52
63 84 85 51 34 192 88 268 102 l32 6 0 -116 c0 -101 -3 -118 -21 -143 -26 -36
-19 -65 24 -92 38 -23 87 -24 127 -4 54 28 62 72 20 110 -18 16 -20 31 -20
156 l0 137 53 38 c28 21 124 108 212 194 88 85 187 173 219 194 148 97 407
140 625 101z"/>
</g>
</svg>
